<svg width="300" height="200" viewBox="0 0 300 200" fill="none" xmlns="http://www.w3.org/2000/svg">
<rect width="300" height="200" fill="#1E1E1E"/>
<g id="Frame 2" clip-path="url(#clip0_29_2)">
<rect width="300" height="200" fill="#2A2C2D"/>
<rect id="Rectangle 228" x="129.392" y="-6.20221" width="3" height="223.716" transform="rotate(36.8666 129.392 -6.20221)" fill="#3F4245"/>
<rect id="Rectangle 224" x="181.785" y="-6.06177" width="3" height="231.321" transform="rotate(36.8666 181.785 -6.06177)" fill="#3F4245"/>
<rect id="Rectangle 227" x="244.125" y="-19.1863" width="3" height="279.222" transform="rotate(36.8666 244.125 -19.1863)" fill="#3F4245"/>
<rect id="OrangePath" x="191.661" y="50.4951" width="6" height="124.974" transform="rotate(36.8666 191.661 50.4951)" fill="#FF8D36"/>
<rect id="Rectangle 222" x="90.9907" y="-35" width="9" height="200" transform="rotate(36.8666 90.9907 -35)" fill="#4A4E51"/>
<rect id="Rectangle 225" x="238.197" y="75.3914" width="9" height="184" transform="rotate(126.867 238.197 75.3914)" fill="#4A4E51"/>
<rect id="Rectangle 226" x="123.606" y="228.198" width="9" height="184" transform="rotate(126.867 123.606 228.198)" fill="#4A4E51"/>
<rect id="Rectangle 223" x="235.323" y="73.2361" width="3.59249" height="200" transform="rotate(36.8666 235.323 73.2361)" fill="#3F4245"/>
<rect id="Rectangle 230" x="158" y="46" width="11" height="10" fill="#353638"/>
<rect id="Rectangle 231" x="144" y="56" width="11" height="10" fill="#353638"/>
<rect id="Rectangle 232" x="158" y="68" width="11" height="10" fill="#353638"/>
<rect id="Rectangle 234" x="133" y="73" width="11" height="10" fill="#353638"/>
<rect id="Rectangle 233" x="188" y="73" width="11" height="10" fill="#353638"/>
<rect id="Rectangle 235" x="209.557" y="78" width="11" height="32" transform="rotate(42.3489 209.557 78)" fill="#353638"/>
<rect id="Rectangle 236" x="125.557" y="17" width="11" height="32" transform="rotate(42.3489 125.557 17)" fill="#353638"/>
<rect id="Rectangle 237" x="34.5566" y="93" width="11" height="32" transform="rotate(42.3489 34.5566 93)" fill="#353638"/>
<circle id="LocationPing" cx="117.5" cy="154.5" r="7.5" fill="#007AFF" stroke="white" stroke-width="2"/>
<path id="PurplePath" d="M278 200L268.095 199.697L266.69 154.643L246.583 111.063L225.216 77.1622L191.077 51.2591L196.477 44.0588L232.306 70.7301L245.993 92.12L257.531 111.398L276.595 154.947L278 200Z" fill="#A176FD"/>
</g>
<defs>
<clipPath id="clip0_29_2">
<rect width="300" height="200" fill="white"/>
</clipPath>
</defs>
</svg>
